<mxfile host="app.diagrams.net" modified="2024-07-07T10:05:28.355Z" agent="Mozilla/5.0 (Macintosh; Intel Mac OS X 10_15_7) AppleWebKit/537.36 (KHTML, like Gecko) Chrome/126.0.0.0 Safari/537.36" etag="gsliaoPAlfO3nAmS1g50" version="24.6.4" type="github">
  <diagram id="prtHgNgQTEPvFCAcTncT" name="Page-1">
    <mxGraphModel dx="789" dy="527" grid="1" gridSize="10" guides="1" tooltips="1" connect="1" arrows="1" fold="1" page="1" pageScale="1" pageWidth="827" pageHeight="1169" math="0" shadow="0">
      <root>
        <mxCell id="0" />
        <mxCell id="1" parent="0" />
        <mxCell id="WUOSkQL4MJoVcgnfEfKK-14" style="edgeStyle=orthogonalEdgeStyle;rounded=0;orthogonalLoop=1;jettySize=auto;html=1;" edge="1" parent="1" source="WUOSkQL4MJoVcgnfEfKK-2">
          <mxGeometry relative="1" as="geometry">
            <mxPoint x="270" y="590" as="targetPoint" />
          </mxGeometry>
        </mxCell>
        <mxCell id="WUOSkQL4MJoVcgnfEfKK-2" value="" style="shape=image;html=1;verticalAlign=top;verticalLabelPosition=bottom;labelBackgroundColor=#ffffff;imageAspect=0;aspect=fixed;image=https://cdn0.iconfinder.com/data/icons/google-material-design-3-0/48/ic_input_48px-128.png" vertex="1" parent="1">
          <mxGeometry x="160" y="444" width="40" height="40" as="geometry" />
        </mxCell>
        <mxCell id="WUOSkQL4MJoVcgnfEfKK-4" style="edgeStyle=orthogonalEdgeStyle;rounded=0;orthogonalLoop=1;jettySize=auto;html=1;entryX=0;entryY=0.5;entryDx=0;entryDy=0;" edge="1" parent="1" source="WUOSkQL4MJoVcgnfEfKK-3" target="WUOSkQL4MJoVcgnfEfKK-2">
          <mxGeometry relative="1" as="geometry" />
        </mxCell>
        <mxCell id="WUOSkQL4MJoVcgnfEfKK-3" value="&lt;font style=&quot;font-size: 11px;&quot;&gt;APP/Web/&lt;/font&gt;&lt;div style=&quot;font-size: 11px;&quot;&gt;&lt;font style=&quot;font-size: 11px;&quot;&gt;Extension&lt;/font&gt;&lt;/div&gt;" style="rounded=1;whiteSpace=wrap;html=1;" vertex="1" parent="1">
          <mxGeometry x="30" y="444" width="70" height="40" as="geometry" />
        </mxCell>
        <mxCell id="WUOSkQL4MJoVcgnfEfKK-6" value="Data Processing" style="text;html=1;align=center;verticalAlign=middle;resizable=0;points=[];autosize=1;strokeColor=none;fillColor=none;" vertex="1" parent="1">
          <mxGeometry x="125" y="478" width="110" height="30" as="geometry" />
        </mxCell>
        <mxCell id="WUOSkQL4MJoVcgnfEfKK-12" value="" style="edgeStyle=none;orthogonalLoop=1;jettySize=auto;html=1;rounded=0;endArrow=none;endFill=0;" edge="1" parent="1">
          <mxGeometry width="80" relative="1" as="geometry">
            <mxPoint x="110" y="590" as="sourcePoint" />
            <mxPoint x="590" y="590" as="targetPoint" />
            <Array as="points" />
          </mxGeometry>
        </mxCell>
        <mxCell id="WUOSkQL4MJoVcgnfEfKK-13" value="IPFS" style="text;html=1;align=center;verticalAlign=middle;resizable=0;points=[];autosize=1;strokeColor=none;fillColor=none;" vertex="1" parent="1">
          <mxGeometry x="60" y="580" width="50" height="30" as="geometry" />
        </mxCell>
        <mxCell id="WUOSkQL4MJoVcgnfEfKK-15" value="Store in IPNS" style="text;html=1;align=center;verticalAlign=middle;resizable=0;points=[];autosize=1;strokeColor=none;fillColor=none;" vertex="1" parent="1">
          <mxGeometry x="260" y="530" width="100" height="30" as="geometry" />
        </mxCell>
        <mxCell id="WUOSkQL4MJoVcgnfEfKK-28" style="edgeStyle=none;rounded=0;orthogonalLoop=1;jettySize=auto;html=1;entryX=1;entryY=0.5;entryDx=0;entryDy=0;" edge="1" parent="1" source="WUOSkQL4MJoVcgnfEfKK-16" target="WUOSkQL4MJoVcgnfEfKK-18">
          <mxGeometry relative="1" as="geometry" />
        </mxCell>
        <mxCell id="WUOSkQL4MJoVcgnfEfKK-29" style="edgeStyle=none;rounded=0;orthogonalLoop=1;jettySize=auto;html=1;entryX=1;entryY=0.5;entryDx=0;entryDy=0;" edge="1" parent="1" source="WUOSkQL4MJoVcgnfEfKK-16" target="WUOSkQL4MJoVcgnfEfKK-19">
          <mxGeometry relative="1" as="geometry" />
        </mxCell>
        <mxCell id="WUOSkQL4MJoVcgnfEfKK-16" value="Requester" style="rounded=1;whiteSpace=wrap;html=1;" vertex="1" parent="1">
          <mxGeometry x="570" y="447" width="70" height="34" as="geometry" />
        </mxCell>
        <mxCell id="WUOSkQL4MJoVcgnfEfKK-18" value="&amp;nbsp;Indexing nodes" style="rounded=1;whiteSpace=wrap;html=1;" vertex="1" parent="1">
          <mxGeometry x="370" y="481" width="100" height="30" as="geometry" />
        </mxCell>
        <mxCell id="WUOSkQL4MJoVcgnfEfKK-27" style="edgeStyle=none;rounded=0;orthogonalLoop=1;jettySize=auto;html=1;entryX=0.5;entryY=0;entryDx=0;entryDy=0;" edge="1" parent="1" source="WUOSkQL4MJoVcgnfEfKK-19" target="WUOSkQL4MJoVcgnfEfKK-18">
          <mxGeometry relative="1" as="geometry" />
        </mxCell>
        <mxCell id="WUOSkQL4MJoVcgnfEfKK-19" value="&amp;nbsp;Curator nodes" style="rounded=1;whiteSpace=wrap;html=1;" vertex="1" parent="1">
          <mxGeometry x="370" y="393" width="100" height="30" as="geometry" />
        </mxCell>
        <mxCell id="WUOSkQL4MJoVcgnfEfKK-25" value="" style="edgeStyle=none;orthogonalLoop=1;jettySize=auto;html=1;rounded=0;endArrow=none;endFill=0;dashed=1;shape=link;" edge="1" parent="1">
          <mxGeometry width="80" relative="1" as="geometry">
            <mxPoint x="420" y="513" as="sourcePoint" />
            <mxPoint x="420" y="590" as="targetPoint" />
            <Array as="points" />
          </mxGeometry>
        </mxCell>
        <mxCell id="WUOSkQL4MJoVcgnfEfKK-26" value="&lt;div&gt;Monitoring&amp;amp;Updating&lt;/div&gt;&lt;div&gt;&lt;br&gt;&lt;/div&gt;" style="text;html=1;align=center;verticalAlign=middle;resizable=0;points=[];autosize=1;strokeColor=none;fillColor=none;" vertex="1" parent="1">
          <mxGeometry x="410" y="545" width="140" height="40" as="geometry" />
        </mxCell>
        <mxCell id="WUOSkQL4MJoVcgnfEfKK-30" value="&lt;div&gt;&lt;font style=&quot;font-size: 10px;&quot;&gt;GraphQL requests&lt;/font&gt;&lt;/div&gt;" style="text;html=1;align=center;verticalAlign=middle;resizable=0;points=[];autosize=1;strokeColor=none;fillColor=none;" vertex="1" parent="1">
          <mxGeometry x="460" y="447" width="110" height="30" as="geometry" />
        </mxCell>
        <mxCell id="WUOSkQL4MJoVcgnfEfKK-31" value="Classification&amp;amp;Labeling&amp;nbsp;" style="text;html=1;align=center;verticalAlign=middle;resizable=0;points=[];autosize=1;strokeColor=none;fillColor=none;" vertex="1" parent="1">
          <mxGeometry x="280" y="430" width="150" height="30" as="geometry" />
        </mxCell>
      </root>
    </mxGraphModel>
  </diagram>
</mxfile>
